<?xml version="1.0" encoding="UTF-8" standalone="no"?>
<!-- Created with Inkscape (http://www.inkscape.org/) -->
<svg
   xmlns:dc="http://purl.org/dc/elements/1.1/"
   xmlns:cc="http://web.resource.org/cc/"
   xmlns:rdf="http://www.w3.org/1999/02/22-rdf-syntax-ns#"
   xmlns:svg="http://www.w3.org/2000/svg"
   xmlns="http://www.w3.org/2000/svg"
   xmlns:sodipodi="http://sodipodi.sourceforge.net/DTD/sodipodi-0.dtd"
   xmlns:inkscape="http://www.inkscape.org/namespaces/inkscape"
   id="svg2"
   sodipodi:version="0.32"
   inkscape:version="0.45"
   width="290"
   height="220"
   version="1.0"
   sodipodi:docbase="/home/cip/kolesnik/work/multi/images"
   sodipodi:docname="gnu-alternative.svg"
   inkscape:output_extension="org.inkscape.output.svg.inkscape"
   inkscape:export-filename="/home/cip/kolesnik/tmp/exp-gnu-alternative.png"
   inkscape:export-xdpi="96.206894"
   inkscape:export-ydpi="96.206894"
   sodipodi:modified="true">
  <metadata
     id="metadata7">
    <rdf:RDF>
      <cc:Work
         rdf:about="">
        <dc:format>image/svg+xml</dc:format>
        <dc:type
           rdf:resource="http://purl.org/dc/dcmitype/StillImage" />
        <dc:title>GNU Alternative Vector</dc:title>
        <cc:license
           rdf:resource="http://creativecommons.org/licenses/GPL/2.0/" />
        <dc:date>Wed Nov 28 23:43:48 CET 2007</dc:date>
        <dc:creator>
          <cc:Agent>
            <dc:title>Sergiy S. Kolesnikov</dc:title>
          </cc:Agent>
        </dc:creator>
        <dc:rights>
          <cc:Agent>
            <dc:title>The Free Software Foundation (FSF)</dc:title>
          </cc:Agent>
        </dc:rights>
        <dc:relation>http://www.gnu.org/graphics/gnu-alternative.html</dc:relation>
      </cc:Work>
      <cc:License
         rdf:about="http://creativecommons.org/licenses/GPL/2.0/">
        <cc:permits
           rdf:resource="http://web.resource.org/cc/Reproduction" />
        <cc:permits
           rdf:resource="http://web.resource.org/cc/Distribution" />
        <cc:requires
           rdf:resource="http://web.resource.org/cc/Notice" />
        <cc:permits
           rdf:resource="http://web.resource.org/cc/DerivativeWorks" />
        <cc:requires
           rdf:resource="http://web.resource.org/cc/ShareAlike" />
        <cc:requires
           rdf:resource="http://web.resource.org/cc/SourceCode" />
      </cc:License>
    </rdf:RDF>
  </metadata>
  <defs
     id="defs5" />
  <sodipodi:namedview
     inkscape:window-height="970"
     inkscape:window-width="1229"
     inkscape:pageshadow="2"
     inkscape:pageopacity="0.0"
     guidetolerance="10.0"
     gridtolerance="10.0"
     objecttolerance="10.0"
     borderopacity="1.0"
     bordercolor="#666666"
     pagecolor="#ffffff"
     id="base"
     width="290px"
     height="220px"
     inkscape:zoom="1.7871131"
     inkscape:cx="218.62148"
     inkscape:cy="86.745246"
     inkscape:window-x="51"
     inkscape:window-y="3"
     inkscape:current-layer="svg2" />
  <g
     id="g2669"
     transform="translate(-322.47068,19.949796)">
    <path
       id="path2659"
       d="M 458.93594,197.42441 C 457.53953,196.66469 455.76272,194.85793 454.98748,193.40938 C 453.58244,190.78402 453.64457,190.367 456.43397,183.70058 C 456.922,182.53426 456.28377,181.30265 454.36116,179.70058 C 446.38658,173.05558 445.36406,170.42124 448.61997,164.90942 C 450.26508,162.12447 450.26508,162.12447 453.86997,164.1858 C 458.64743,166.91762 458.5085,166.75215 457.15819,168.10246 C 455.28326,169.97739 455.7691,173.21834 458.47486,176.88579 C 461.27727,180.68425 461.59482,184.1773 459.47486,187.88579 C 457.94221,190.56688 457.4853,194.88579 458.73431,194.88579 C 459.15201,194.88579 460.05583,195.78579 460.74279,196.88579 C 462.20192,199.22223 462.2268,199.21481 458.93594,197.42441 z M 460.22486,194.74439 C 458.45578,192.96314 458.6691,191.08996 460.97486,188.15866 C 463.62442,184.7903 463.49704,182.11852 460.47486,177.67098 C 456.08616,171.21243 457.86304,166.14692 463.6003,168.76099 C 466.01113,169.85944 466.09141,170.20391 465.90336,178.64245 C 465.75921,185.11114 465.25323,188.03618 463.95845,189.88579 C 462.99591,191.26079 462.04334,193.19966 461.84162,194.19439 C 461.54721,195.6462 461.22827,195.75471 460.22486,194.74439 z M 462.82277,163.62285 C 460.82033,161.93378 460.05121,160.19479 459.68298,156.52378 C 459.06217,150.33468 455.50116,145.94066 454.46191,150.08136 C 454.09866,151.52867 454.49895,154.20435 455.4021,156.36589 C 456.26712,158.43617 456.97486,160.3217 456.97486,160.55595 C 456.97486,160.79021 454.85898,159.49775 452.27291,157.68383 C 449.68683,155.86991 447.16928,154.10793 446.67834,153.76833 C 446.18741,153.42873 447.35857,151.09033 449.28094,148.5719 C 456.10692,139.62938 458.93613,126.72566 458.96899,104.38579 C 459.02226,68.172763 449.31713,55.581458 420.65125,54.672887 C 412.07336,54.401008 411.56691,53.667851 418.79613,51.987326 C 421.91943,51.261275 428.97486,48.803908 434.47486,46.526511 C 443.85529,42.642334 445.07603,42.385977 454.1779,42.388828 C 459.64496,42.390541 464.34142,42.852346 464.93572,43.446649 C 465.65799,44.168919 465.90923,63.630053 465.73268,105.18067 C 465.47486,165.8599 465.47486,165.8599 462.82277,163.62285 z M 451.97486,136.93284 C 451.97486,128.53506 448.03309,125.17882 424.47486,113.51778 C 398.6418,100.73073 390.4277,94.459759 391.16321,88.086339 C 392.33125,77.964889 430.84137,80.648049 444.74267,91.819439 C 457.31477,101.92265 460.51906,115.20034 454.83011,133.61901 C 452.69173,140.54227 451.97486,141.37428 451.97486,136.93284 z M 455.10476,102.29103 C 448.98333,88.371129 433.7578,81.759509 406.93731,81.374519 C 388.45276,81.109189 381.39427,78.680039 373.94918,70.021831 C 370.55534,66.074978 365.97486,56.835951 365.97486,53.937261 C 365.97486,53.456834 370.6563,55.508576 376.37806,58.496688 C 397.21156,69.376696 410.86572,72.542028 432.78059,71.572028 C 440.31244,71.238652 447.41409,70.689544 448.56203,70.351788 C 452.85022,69.090091 458.37764,87.169409 457.78945,100.53317 C 457.47486,107.68054 457.47486,107.68054 455.10476,102.29103 z M 386.41544,91.781619 C 378.81404,87.814909 370.1007,76.566369 367.38009,67.207804 C 365.25233,59.888568 366.06945,59.619775 369.88655,66.3833 C 373.18941,72.235658 381.22952,78.494609 388.54648,80.909429 C 392.51161,82.218039 392.49172,82.167329 390.33301,85.461939 C 388.98807,87.514569 388.90442,88.435779 389.87045,90.555979 C 391.45584,94.035539 391.02649,94.187849 386.41544,91.781619 z M 409.47486,69.739347 C 399.53865,67.905604 374.40925,58.015255 372.71253,55.270548 C 372.40141,54.767276 380.58646,54.446502 391.69559,54.526597 C 411.2256,54.667404 411.2256,54.667404 413.35023,57.238016 C 417.56294,62.335013 432.76091,67.836354 442.72486,67.871008 C 445.06236,67.879138 446.97486,68.273108 446.97486,68.746498 C 446.97486,70.844059 419.41461,71.573743 409.47486,69.739347 z M 372.47486,52.981667 C 365.55708,52.013507 368.5492,51.148164 380.97486,50.523408 C 403.3173,49.400042 419.95486,43.59214 433.18777,32.296732 C 439.03965,27.301659 442.63041,25.954872 451.97486,25.250269 C 463.39123,24.389436 466.98901,27.637273 465.51411,37.472612 C 464.87437,41.738719 464.8678,41.744427 461.8191,40.681645 C 455.35834,38.429414 443.22046,40.235305 434.31255,44.774109 C 421.37817,51.3645 413.26905,53.101396 393.97486,53.414052 C 384.89986,53.56111 375.22486,53.366536 372.47486,52.981667 z M 360.47486,48.286617 C 359.37486,48.055334 355.99986,47.373407 352.97486,46.771223 C 324.5617,41.115042 314.20882,14.413247 332.52868,-5.96285 C 340.47313,-14.798991 349.96339,-18.61542 363.97486,-18.608677 C 377.69005,-18.602076 384.30749,-16.626276 400.87551,-7.591076 C 414.70653,-0.048475 418.11499,1.100349 426.97486,1.20572 C 434.17015,1.291294 443.61323,-0.902913 446.74903,-3.389029 C 447.44982,-3.94463 448.21285,-4.209555 448.44465,-3.977751 C 450.10962,-2.312787 438.86408,4.443175 431.12939,6.424712 C 421.9714,8.77088 413.61709,7.297892 399.3942,0.829329 C 382.77475,-6.729188 372.35446,-6.601885 361.62739,1.29072 C 353.46938,7.293099 353.9786,21.868567 362.63328,30.082741 C 373.17918,40.091878 401.8723,40.714183 426.37851,31.465265 C 434.98643,28.216538 435.39707,28.583277 428.92316,33.73788 C 419.60323,41.158514 407.04353,45.552557 388.97486,47.713893 C 381.09091,48.656954 363.88107,49.002795 360.47486,48.286617 z "
       style="fill:#000000" />
    <path
       id="path2661"
       d="M 476.00542,197.42441 C 477.40183,196.66469 479.17864,194.85793 479.95388,193.40938 C 481.35892,190.78402 481.29679,190.367 478.50739,183.70058 C 478.01936,182.53426 478.65759,181.30265 480.5802,179.70058 C 488.55478,173.05558 489.5773,170.42124 486.32139,164.90942 C 484.67628,162.12447 484.67628,162.12447 481.07139,164.1858 C 476.29393,166.91762 476.43286,166.75215 477.78317,168.10246 C 479.6581,169.97739 479.17226,173.21834 476.4665,176.88579 C 473.66409,180.68425 473.34654,184.1773 475.4665,187.88579 C 476.99915,190.56688 477.45606,194.88579 476.20705,194.88579 C 475.78935,194.88579 474.88553,195.78579 474.19857,196.88579 C 472.73944,199.22223 472.71456,199.21481 476.00542,197.42441 z M 474.7165,194.74439 C 476.48558,192.96314 476.27226,191.08996 473.9665,188.15866 C 471.31694,184.7903 471.44432,182.11852 474.4665,177.67098 C 478.8552,171.21243 477.07832,166.14692 471.34106,168.76099 C 468.93023,169.85944 468.84995,170.20391 469.038,178.64245 C 469.18215,185.11114 469.68813,188.03618 470.98291,189.88579 C 471.94545,191.26079 472.89802,193.19966 473.09974,194.19439 C 473.39415,195.6462 473.71309,195.75471 474.7165,194.74439 z M 472.11859,163.62285 C 474.12103,161.93378 474.89015,160.19479 475.25838,156.52378 C 475.87919,150.33468 479.4402,145.94066 480.47945,150.08136 C 480.8427,151.52867 480.44241,154.20435 479.53926,156.36589 C 478.67424,158.43617 477.9665,160.3217 477.9665,160.55595 C 477.9665,160.79021 480.08238,159.49775 482.66845,157.68383 C 485.25453,155.86991 487.77208,154.10793 488.26302,153.76833 C 488.75395,153.42873 487.58279,151.09033 485.66042,148.5719 C 478.83444,139.62938 476.00523,126.72566 475.97237,104.38579 C 475.9191,68.172763 485.62423,55.581458 514.29011,54.672887 C 522.868,54.401008 523.37445,53.667851 516.14523,51.987326 C 513.02193,51.261275 505.9665,48.803908 500.4665,46.526511 C 491.08607,42.642334 489.86533,42.385977 480.76346,42.388828 C 475.2964,42.390541 470.59994,42.852346 470.00564,43.446649 C 469.28337,44.168919 469.03213,63.630053 469.20868,105.18067 C 469.4665,165.8599 469.4665,165.8599 472.11859,163.62285 z M 482.9665,136.93284 C 482.9665,128.53506 486.90827,125.17882 510.4665,113.51778 C 536.29956,100.73073 544.51366,94.459759 543.77815,88.086339 C 542.61011,77.964889 504.09999,80.648049 490.19869,91.819439 C 477.62659,101.92265 474.4223,115.20034 480.11125,133.61901 C 482.24963,140.54227 482.9665,141.37428 482.9665,136.93284 z M 479.8366,102.29103 C 485.95803,88.371129 501.18356,81.759509 528.00406,81.374519 C 546.4886,81.109189 553.5471,78.680039 560.99218,70.021831 C 564.38603,66.074978 568.9665,56.835951 568.9665,53.937261 C 568.9665,53.456834 564.28506,55.508576 558.5633,58.496688 C 537.7298,69.376696 524.07565,72.542028 502.16077,71.572028 C 494.62892,71.238652 487.52727,70.689544 486.37933,70.351788 C 482.09114,69.090091 476.56372,87.169409 477.15191,100.53317 C 477.4665,107.68054 477.4665,107.68054 479.8366,102.29103 z M 548.52592,91.781619 C 556.12732,87.814909 564.84066,76.566369 567.56127,67.207804 C 569.68903,59.888568 568.87191,59.619775 565.05482,66.3833 C 561.75195,72.235658 553.71184,78.494609 546.39488,80.909429 C 542.42975,82.218039 542.44965,82.167329 544.60835,85.461939 C 545.95329,87.514569 546.03694,88.435779 545.07091,90.555979 C 543.48552,94.035539 543.91487,94.187849 548.52592,91.781619 z M 525.4665,69.739347 C 535.40271,67.905604 560.53212,58.015255 562.22884,55.270548 C 562.53995,54.767276 554.3549,54.446502 543.24577,54.526597 C 523.71576,54.667404 523.71576,54.667404 521.59113,57.238016 C 517.37842,62.335013 502.18045,67.836354 492.2165,67.871008 C 489.879,67.879138 487.9665,68.273108 487.9665,68.746498 C 487.9665,70.844059 515.52675,71.573743 525.4665,69.739347 z M 562.4665,52.981667 C 569.38428,52.013507 566.39216,51.148164 553.9665,50.523408 C 531.62407,49.400042 514.9865,43.59214 501.75359,32.296732 C 495.90171,27.301659 492.31095,25.954872 482.9665,25.250269 C 471.55013,24.389436 467.95235,27.637273 469.42725,37.472612 C 470.06699,41.738719 470.07356,41.744427 473.12226,40.681645 C 479.58302,38.429414 491.7209,40.235305 500.62881,44.774109 C 513.56319,51.3645 521.67231,53.101396 540.9665,53.414052 C 550.0415,53.56111 559.7165,53.366536 562.4665,52.981667 z M 574.4665,48.286617 C 575.5665,48.055334 578.9415,47.373407 581.9665,46.771223 C 610.37966,41.115042 620.73254,14.413247 602.41268,-5.96285 C 594.46823,-14.798991 584.97798,-18.61542 570.9665,-18.608677 C 557.25131,-18.602077 550.63387,-16.626277 534.06585,-7.591076 C 520.23483,-0.048475 516.82637,1.100349 507.9665,1.20572 C 500.77121,1.291294 491.32813,-0.902913 488.19233,-3.389029 C 487.49154,-3.94463 486.72851,-4.209555 486.49671,-3.977751 C 484.83174,-2.312787 496.07728,4.443175 503.81197,6.424712 C 512.96996,8.77088 521.32427,7.297892 535.54716,0.829329 C 552.16661,-6.729188 562.5869,-6.601885 573.31397,1.29072 C 581.47198,7.293099 580.96276,21.868567 572.30808,30.082741 C 561.76218,40.091878 533.06906,40.714183 508.56285,31.465265 C 499.95493,28.216538 499.54429,28.583277 506.0182,33.73788 C 515.33813,41.158514 527.89783,45.552557 545.9665,47.713893 C 553.85045,48.656954 571.06029,49.002795 574.4665,48.286617 z "
       style="fill:#000000" />
  </g>
</svg>
